<svg width="50" height="52" viewBox="0 0 50 52" fill="none" xmlns="http://www.w3.org/2000/svg">
<path d="M9.12409 52C8.58881 52 8.12652 51.8267 7.73723 51.48C7.39659 51.1333 7.22628 50.6876 7.22628 50.1429V43.6057H1.82482C1.28954 43.6057 0.851581 43.4324 0.510949 43.0857C0.170316 42.6895 0 42.219 0 41.6743V38.7029C0 38.1581 0.170316 37.7124 0.510949 37.3657C0.900243 37.019 1.3382 36.8457 1.82482 36.8457H7.22628V33.1314H1.82482C1.3382 33.1314 0.900243 32.9581 0.510949 32.6114C0.170316 32.2152 0 31.7695 0 31.2743V25.3314C0 24.7867 0.170316 24.341 0.510949 23.9943C0.900243 23.6476 1.3382 23.4743 1.82482 23.4743H7.22628V1.93143C7.22628 1.38667 7.39659 0.940952 7.73723 0.594287C8.12652 0.198096 8.58881 0 9.12409 0H29.781C36.0584 0 40.9976 1.46095 44.5985 4.38286C48.1995 7.30476 50 11.5886 50 17.2343C50 22.5333 48.1995 26.52 44.5985 29.1943C41.0462 31.819 36.1071 33.1314 29.781 33.1314H21.4599V36.8457H30.8029C31.3382 36.8457 31.7762 37.019 32.1168 37.3657C32.4574 37.7124 32.6277 38.1581 32.6277 38.7029V41.6743C32.6277 42.219 32.4574 42.6895 32.1168 43.0857C31.7762 43.4324 31.3382 43.6057 30.8029 43.6057H21.4599V50.1429C21.4599 50.6876 21.2652 51.1333 20.8759 51.48C20.5353 51.8267 20.0973 52 19.562 52H9.12409ZM29.4161 23.4743C31.4112 23.4743 32.9684 22.9543 34.0876 21.9143C35.2555 20.8248 35.8394 19.24 35.8394 17.16C35.8394 15.2286 35.3041 13.6686 34.2336 12.48C33.163 11.2914 31.5572 10.6971 29.4161 10.6971H21.1679V23.4743H29.4161Z" fill="#70C05B"/>
</svg>
