<svg width="27" height="30" viewBox="0 0 27 30" fill="none" xmlns="http://www.w3.org/2000/svg">
<path d="M4.92701 30C4.63796 30 4.38832 29.9 4.1781 29.7C3.99416 29.5 3.90219 29.2429 3.90219 28.9286V25.1571H0.985401C0.69635 25.1571 0.459854 25.0571 0.275912 24.8571C0.0919708 24.6286 0 24.3571 0 24.0429V22.3286C0 22.0143 0.0919708 21.7571 0.275912 21.5571C0.486131 21.3571 0.722628 21.2571 0.985401 21.2571H3.90219V19.1143H0.985401C0.722628 19.1143 0.486131 19.0143 0.275912 18.8143C0.0919708 18.5857 0 18.3286 0 18.0429V14.6143C0 14.3 0.0919708 14.0429 0.275912 13.8429C0.486131 13.6429 0.722628 13.5429 0.985401 13.5429H3.90219V1.11429C3.90219 0.8 3.99416 0.542857 4.1781 0.342858C4.38832 0.114286 4.63796 0 4.92701 0H16.0817C19.4715 0 22.1387 0.842857 24.0832 2.52857C26.0277 4.21429 27 6.68571 27 9.94286C27 13 26.0277 15.3 24.0832 16.8429C22.165 18.3571 19.4978 19.1143 16.0817 19.1143H11.5883V21.2571H16.6336C16.9226 21.2571 17.1591 21.3571 17.3431 21.5571C17.527 21.7571 17.619 22.0143 17.619 22.3286V24.0429C17.619 24.3571 17.527 24.6286 17.3431 24.8571C17.1591 25.0571 16.9226 25.1571 16.6336 25.1571H11.5883V28.9286C11.5883 29.2429 11.4832 29.5 11.273 29.7C11.089 29.9 10.8526 30 10.5635 30H4.92701ZM15.8847 13.5429C16.962 13.5429 17.8029 13.2429 18.4073 12.6429C19.038 12.0143 19.3533 11.1 19.3533 9.9C19.3533 8.78572 19.0642 7.88572 18.4861 7.2C17.908 6.51429 17.0409 6.17143 15.8847 6.17143H11.4307V13.5429H15.8847Z" fill="#70C05B"/>
</svg>
